<?xml version="1.0" encoding="UTF-8" standalone="no"?>
<!-- Uploaded to: SVG Repo, www.svgrepo.com, Generator: SVG Repo Mixer Tools -->

<svg
   height="800px"
   width="800px"
   version="1.1"
   id="Capa_1"
   viewBox="0 0 370.32 370.32"
   xml:space="preserve"
   xmlns="http://www.w3.org/2000/svg"
   xmlns:svg="http://www.w3.org/2000/svg"><defs
   id="defs5" />
<g
   id="g5">
	
	
	<path
   style="fill:#020202;"
   d="M211.944,253.354v14.608h7.717c9.359,0,9.359-5.599,9.359-7.439c0-1.775,0-7.17-9.359-7.17H211.944z   "
   id="path3" />
	<path
   style="fill:#020202;"
   d="M325.879,225.752h-24.41V73.703c0-3.934-1.56-7.705-4.344-10.484l-58.876-58.88   C235.465,1.561,231.699,0,227.765,0H50.58C34.527,0,21.469,13.059,21.469,29.112v312.095c0,16.054,13.059,29.113,29.111,29.113   h221.777c16.052,0,29.111-13.06,29.111-29.113v-30.048h24.41c12.687,0,22.973-10.285,22.973-22.973v-39.462   C348.852,236.038,338.566,225.752,325.879,225.752z M269.855,337.906H53.082V32.414H207.17V75.99   c0,10.555,8.554,19.107,19.105,19.107h43.58v130.655h-74.178c-12.688,0-22.973,10.286-22.973,22.973v39.462   c0,12.688,10.285,22.973,22.973,22.973h74.178V337.906z M238.51,260.523c0,10.441-7.224,16.928-18.85,16.928h-7.717v8.977   c0,2.316-1.877,4.197-4.195,4.197h-1.097c-2.319,0-4.197-1.881-4.197-4.197v-38.366c0-2.316,1.878-4.197,4.197-4.197h13.009   C231.287,243.864,238.51,250.246,238.51,260.523z M262.305,290.625H247.21c-2.319,0-4.197-1.881-4.197-4.197v-38.366   c0-2.316,1.877-4.197,4.197-4.197h15.095c13.148,0,23.845,10.5,23.845,23.409C286.15,280.15,275.454,290.625,262.305,290.625z    M322.455,249.156c0,2.32-1.878,4.197-4.197,4.197h-17.045v10.053h14.521c2.317,0,4.197,1.875,4.197,4.195v1.099   c0,2.316-1.88,4.197-4.197,4.197h-14.521v13.53c0,2.316-1.877,4.197-4.196,4.197h-1.096c-2.32,0-4.197-1.881-4.197-4.197v-38.366   c0-2.316,1.877-4.197,4.197-4.197h22.337c2.319,0,4.197,1.881,4.197,4.197V249.156z"
   id="path4" />
	<path
   style="fill:#020202;"
   d="M262.305,253.354h-9.803v27.782h9.803c7.915,0,14.355-6.222,14.355-13.862   C276.661,259.598,270.221,253.354,262.305,253.354z"
   id="path5" />
<rect
   style="opacity:0.99;fill:#090909;fill-rule:evenodd;stroke:#bf0064;stroke-width:0.64806;stroke-linecap:square;paint-order:stroke fill markers"
   id="rect5"
   width="84.085106"
   height="57.016609"
   x="77.749924"
   y="89.268433"
   ry="1.127295" /><rect
   style="opacity:0.99;fill:#090909;fill-rule:evenodd;stroke:#bf0064;stroke-width:0.64806;stroke-linecap:square;paint-order:stroke fill markers"
   id="rect6"
   width="116.91285"
   height="46.649952"
   x="112.30544"
   y="162.41095"
   ry="1.127295" /></g>
</svg>
